<?xml version="1.0" encoding="UTF-8" standalone="no"?>
<svg
   xmlns:dc="http://purl.org/dc/elements/1.1/"
   xmlns:cc="http://creativecommons.org/ns#"
   xmlns:rdf="http://www.w3.org/1999/02/22-rdf-syntax-ns#"
   xmlns:svg="http://www.w3.org/2000/svg"
   xmlns="http://www.w3.org/2000/svg"
   xmlns:sodipodi="http://sodipodi.sourceforge.net/DTD/sodipodi-0.dtd"
   xmlns:inkscape="http://www.inkscape.org/namespaces/inkscape"
   viewBox="0.0 0.0 348.0 348.0"
   fill="none"
   version="1.1"
   id="svg831"
   sodipodi:docname="ASCII Maze.svg"
   inkscape:version="0.92.4 (5da689c313, 2019-01-14)">
  <metadata
     id="metadata837">
    <rdf:RDF>
      <cc:Work
         rdf:about="">
        <dc:format>image/svg+xml</dc:format>
        <dc:type
           rdf:resource="http://purl.org/dc/dcmitype/StillImage" />
        <dc:title />
      </cc:Work>
    </rdf:RDF>
  </metadata>
  <defs
     id="defs835" />
  <sodipodi:namedview
     pagecolor="#ffffff"
     bordercolor="#666666"
     borderopacity="1"
     objecttolerance="10"
     gridtolerance="10"
     guidetolerance="10"
     inkscape:pageopacity="0"
     inkscape:pageshadow="2"
     inkscape:window-width="1366"
     inkscape:window-height="705"
     id="namedview833"
     showgrid="false"
     inkscape:zoom="1.5890805"
     inkscape:cx="174"
     inkscape:cy="174"
     inkscape:window-x="-8"
     inkscape:window-y="-8"
     inkscape:window-maximized="1"
     inkscape:current-layer="svg831"
     inkscape:snap-global="false" />
  <path
     d="M5.079 5.776h336.913v337.67H5.08z"
     id="path827"
     stroke-width="2"
     stroke="#000" />
  <path
     d="M282.734 40.554c0-8.376 6.966-15.165 15.56-15.165 4.126 0 8.084 1.597 11.001 4.441 2.918 2.844 4.558 6.702 4.558 10.724 0 8.376-6.966 15.165-15.56 15.165-8.593 0-15.559-6.79-15.559-15.165z"
     stroke-width="2"
     stroke="#000"
     id="path829" />
  <rect
     style="opacity:1;fill:#000000;fill-opacity:1;stroke:#000000;stroke-width:1.88976383;stroke-miterlimit:4;stroke-dasharray:none;stroke-opacity:1"
     id="rect839"
     width="229.06329"
     height="57.265823"
     x="57.895119"
     y="261.78662"
     ry="1.06206e-05" />
  <path
     style="fill:none;stroke:#000000;stroke-width:3;stroke-linecap:butt;stroke-linejoin:miter;stroke-opacity:1;stroke-miterlimit:4;stroke-dasharray:none"
     d="m 45.817873,261.90727 v 17.62025 l -11.64195,9.84234 11.61307,11.31239 v 16.99096 l -28.91868,-28.28903 z"
     id="path843"
     inkscape:connector-curvature="0"
     sodipodi:nodetypes="ccccccc" />
  <path
     sodipodi:nodetypes="ccccccc"
     inkscape:connector-curvature="0"
     id="path845"
     d="m 298.64975,261.90727 v 17.62025 l 11.64195,9.84234 -11.61307,11.31239 v 16.99096 l 28.91868,-28.28903 z"
     style="fill:none;stroke:#000000;stroke-width:3;stroke-linecap:butt;stroke-linejoin:miter;stroke-opacity:1;stroke-miterlimit:4;stroke-dasharray:none" />
  <path
     id="path855"
     d="m 206.245,148.964 c 0,8.376 -6.966,15.165 -15.56,15.165 -4.126,0 -8.084,-1.597 -11.001,-4.441 -2.918,-2.844 -4.558,-6.702 -4.558,-10.724 0,-8.376 6.966,-15.165 15.56,-15.165 8.593,0 15.559,6.79 15.559,15.165 z"
     inkscape:connector-curvature="0"
     style="stroke:#000000;stroke-width:2" />
  <path
     style="stroke:#000000;stroke-width:2"
     inkscape:connector-curvature="0"
     d="m 170.245,148.964 c 0,8.376 -6.966,15.165 -15.56,15.165 -4.126,0 -8.084,-1.597 -11.001,-4.441 -2.918,-2.844 -4.558,-6.702 -4.558,-10.724 0,-8.376 6.966,-15.165 15.56,-15.165 8.593,0 15.559,6.79 15.559,15.165 z"
     id="path857" />
  <path
     style="stroke:#000000;stroke-width:2"
     inkscape:connector-curvature="0"
     d="m 206.245,114.964 c 0,8.376 -6.966,15.165 -15.56,15.165 -4.126,0 -8.084,-1.597 -11.001,-4.441 -2.918,-2.844 -4.558,-6.702 -4.558,-10.724 0,-8.376 6.966,-15.165 15.56,-15.165 8.593,0 15.559,6.79 15.559,15.165 z"
     id="path859" />
  <path
     id="path861"
     d="m 170.245,114.964 c 0,8.376 -6.966,15.165 -15.56,15.165 -4.126,0 -8.084,-1.597 -11.001,-4.441 -2.918,-2.844 -4.558,-6.702 -4.558,-10.724 0,-8.376 6.966,-15.165 15.56,-15.165 8.593,0 15.559,6.79 15.559,15.165 z"
     inkscape:connector-curvature="0"
     style="stroke:#000000;stroke-width:2" />
  <path
     sodipodi:type="star"
     style="opacity:1;fill:#ffffff;fill-opacity:1;stroke:#000000;stroke-width:1.88976383;stroke-miterlimit:4;stroke-dasharray:none;stroke-opacity:1"
     id="path863"
     sodipodi:sides="4"
     sodipodi:cx="64.188057"
     sodipodi:cy="208.92586"
     sodipodi:r1="30.333271"
     sodipodi:r2="21.44886"
     sodipodi:arg1="0"
     sodipodi:arg2="0.78539816"
     inkscape:flatsided="true"
     inkscape:rounded="0"
     inkscape:randomized="0"
     d="M 94.521328,208.92586 64.188057,239.25913 33.854786,208.92586 64.188057,178.59259 Z" />
  <path
     d="m 87.260637,208.92586 -23.07258,23.07258 -23.07258,-23.07258 23.07258,-23.07258 z"
     inkscape:randomized="0"
     inkscape:rounded="0"
     inkscape:flatsided="true"
     sodipodi:arg2="0.78539816"
     sodipodi:arg1="0"
     sodipodi:r2="16.314777"
     sodipodi:r1="23.07258"
     sodipodi:cy="208.92586"
     sodipodi:cx="64.188057"
     sodipodi:sides="4"
     id="path865"
     style="opacity:1;fill:#ffffff;fill-opacity:1;stroke:#000000;stroke-width:1.88976383;stroke-miterlimit:4;stroke-dasharray:none;stroke-opacity:1"
     sodipodi:type="star" />
  <text
     xml:space="preserve"
     style="font-style:normal;font-variant:normal;font-weight:normal;font-stretch:normal;font-size:51.41968155px;line-height:1.25;font-family:'Gill Sans Nova';-inkscape-font-specification:'Gill Sans Nova';text-align:start;letter-spacing:0px;word-spacing:0px;text-anchor:start;fill:#000000;fill-opacity:1;stroke:none;stroke-width:3.85647583"
     x="51.156078"
     y="247.27077"
     id="text869"
     transform="scale(1.1031903,0.90646193)"><tspan
       sodipodi:role="line"
       id="tspan867"
       x="51.156078"
       y="247.27077"
       style="stroke-width:3.85647583">!</tspan></text>
  <path
     d="m 314.52132,208.92586 -30.33327,30.33327 -30.33327,-30.33327 30.33327,-30.33327 z"
     inkscape:randomized="0"
     inkscape:rounded="0"
     inkscape:flatsided="true"
     sodipodi:arg2="0.78539816"
     sodipodi:arg1="0"
     sodipodi:r2="21.44886"
     sodipodi:r1="30.333271"
     sodipodi:cy="208.92586"
     sodipodi:cx="284.18805"
     sodipodi:sides="4"
     id="path871"
     style="opacity:1;fill:#ffffff;fill-opacity:1;stroke:#000000;stroke-width:1.88976383;stroke-miterlimit:4;stroke-dasharray:none;stroke-opacity:1"
     sodipodi:type="star" />
  <path
     sodipodi:type="star"
     style="opacity:1;fill:#ffffff;fill-opacity:1;stroke:#000000;stroke-width:1.88976383;stroke-miterlimit:4;stroke-dasharray:none;stroke-opacity:1"
     id="path873"
     sodipodi:sides="4"
     sodipodi:cx="284.18805"
     sodipodi:cy="208.92586"
     sodipodi:r1="23.07258"
     sodipodi:r2="16.314777"
     sodipodi:arg1="0"
     sodipodi:arg2="0.78539816"
     inkscape:flatsided="true"
     inkscape:rounded="0"
     inkscape:randomized="0"
     d="m 307.26063,208.92586 -23.07258,23.07258 -23.07258,-23.07258 23.07258,-23.07258 z" />
  <path
     id="path879"
     d="m 270.54017,208.78822 c 0,-7.39778 6.15245,-13.3939 13.74277,-13.3939 3.64413,0 7.13988,1.41048 9.71621,3.92234 2.57721,2.51185 4.02568,5.91928 4.02568,9.47156 0,7.39778 -6.15245,13.3939 -13.74277,13.3939 -7.58944,0 -13.74189,-5.997 -13.74189,-13.3939 z"
     inkscape:connector-curvature="0"
     style="stroke:#000000;stroke-width:1.88976383;stroke-miterlimit:4;stroke-dasharray:none" />
  <path
     style="stroke:#000000;stroke-width:1.88976383;stroke-miterlimit:4;stroke-dasharray:none"
     inkscape:connector-curvature="0"
     d="m 274.762,208.78822 c 0,-5.12508 4.26233,-9.27912 9.5208,-9.27912 2.52461,0 4.94642,0.97716 6.73127,2.71735 1.78545,1.74017 2.78893,4.1008 2.78893,6.56177 0,5.12508 -4.26233,9.27912 -9.5208,9.27912 -5.25787,0 -9.5202,-4.15465 -9.5202,-9.27912 z"
     id="path881" />
  <path
     sodipodi:nodetypes="ccccccc"
     inkscape:connector-curvature="0"
     id="path840"
     d="m 122.63971,100.54705 v 19.71019 l -25.218792,11.00972 25.156222,12.65418 v 19.00624 L 59.933604,131.283 Z"
     style="fill:#000000;stroke:#000000;stroke-width:1.92966092;stroke-linecap:butt;stroke-linejoin:miter;stroke-miterlimit:4;stroke-dasharray:none;stroke-opacity:1" />
  <path
     style="fill:#ffffff;stroke:#000000;stroke-width:1.68918574;stroke-linecap:butt;stroke-linejoin:miter;stroke-miterlimit:4;stroke-dasharray:none;stroke-opacity:1"
     d="m 116.64278,104.12813 v 17.44795 l -21.830497,9.74608 21.776337,11.20178 v 16.8248 L 62.361618,131.33635 Z"
     id="path849"
     inkscape:connector-curvature="0"
     sodipodi:nodetypes="ccccccc" />
  <path
     style="fill:#000000;stroke:#000000;stroke-width:1.92966092;stroke-linecap:butt;stroke-linejoin:miter;stroke-miterlimit:4;stroke-dasharray:none;stroke-opacity:1"
     d="M 204.47682,79.09027 H 184.76663 L 173.75691,53.87148 161.10273,79.0277 h -19.00624 l 31.64438,-62.64354 z"
     id="path842"
     inkscape:connector-curvature="0"
     sodipodi:nodetypes="ccccccc" />
  <path
     sodipodi:nodetypes="ccccccc"
     inkscape:connector-curvature="0"
     id="path844"
     d="m 201.1125,72.87902 h -17.44795 l -9.74608,-21.8305 -11.20178,21.77634 h -16.8248 l 28.01239,-54.22701 z"
     style="fill:#ffffff;stroke:#000000;stroke-width:1.68918574;stroke-linecap:butt;stroke-linejoin:miter;stroke-miterlimit:4;stroke-dasharray:none;stroke-opacity:1" />
  <path
     style="fill:#000000;stroke:#000000;stroke-width:1.92966092;stroke-linecap:butt;stroke-linejoin:miter;stroke-miterlimit:4;stroke-dasharray:none;stroke-opacity:1"
     d="m 221.73107,163.55667 v -19.71019 l 25.21879,-11.00972 -25.15622,-12.65418 v -19.00624 l 62.64353,31.64438 z"
     id="path846"
     inkscape:connector-curvature="0"
     sodipodi:nodetypes="ccccccc" />
  <path
     sodipodi:nodetypes="ccccccc"
     inkscape:connector-curvature="0"
     id="path848"
     d="m 228.15908,159.97803 v -17.44795 l 21.8305,-9.74608 -21.77634,-11.20178 v -16.8248 l 54.227,28.01239 z"
     style="fill:#ffffff;stroke:#000000;stroke-width:1.68918574;stroke-linecap:butt;stroke-linejoin:miter;stroke-miterlimit:4;stroke-dasharray:none;stroke-opacity:1" />
  <path
     sodipodi:nodetypes="ccccccc"
     inkscape:connector-curvature="0"
     id="path850"
     d="m 142.09649,183.25938 h 19.71019 l 11.00972,25.21879 12.65418,-25.15622 h 19.00624 l -31.64438,62.64354 z"
     style="fill:#000000;stroke:#000000;stroke-width:1.92966092;stroke-linecap:butt;stroke-linejoin:miter;stroke-miterlimit:4;stroke-dasharray:none;stroke-opacity:1" />
  <path
     style="fill:#ffffff;stroke:#000000;stroke-width:1.68918574;stroke-linecap:butt;stroke-linejoin:miter;stroke-miterlimit:4;stroke-dasharray:none;stroke-opacity:1"
     d="m 145.89189,189.47307 h 17.44795 l 9.74608,21.8305 11.20178,-21.77634 h 16.8248 l -28.01239,54.22701 z"
     id="path852"
     inkscape:connector-curvature="0"
     sodipodi:nodetypes="ccccccc" />
</svg>
